<svg width="1000" height="1000" viewBox="0 0 1000 1000" fill="none" xmlns="http://www.w3.org/2000/svg">
<g clip-path="url(#clip0_1_3)">
<path d="M211.203 174.54L273.566 46.677L679.36 124.922L990.847 396.522L928.483 524.385L897.297 509.174L950.535 400.023L664.149 156.109L295.626 80.5993L242.389 189.751L211.203 174.54Z" fill="black"/>
<path d="M785.98 827.505L721.85 954.491L317.18 870.626L9.48901 594.733L73.6197 467.747L104.592 483.389L49.8462 591.792L332.822 839.654L700.262 920.266L755.008 811.863L785.98 827.505Z" fill="black"/>
<g filter="url(#filter0_d_1_3)">
<path fill-rule="evenodd" clip-rule="evenodd" d="M434.936 299.331C460.302 305.127 513.802 336.194 524.872 414.092C535.941 491.991 462.608 532.331 434.936 532.331H351.918C349.612 531.172 345 519.116 345 480.167V337.585C345 324.834 346.384 299.331 351.918 299.331H434.936ZM437.123 339.331C454.081 343.112 489.846 363.379 497.246 414.197C504.645 465.015 455.622 491.331 437.123 491.331H381.625C380.083 490.575 377 482.71 377 457.301V364.287C377 355.968 377.925 339.331 381.625 339.331H437.123Z" fill="black"/>
</g>
<g filter="url(#filter1_d_1_3)">
<path d="M626.826 415.331H484.429C480.956 415.331 474.01 420.204 474.01 439.693C474.01 466.329 471.563 456.099 543.472 453.615C615.381 451.13 612.929 441.984 543.472 530.181C516.513 564.414 470.537 627.63 477.483 645.031C484.429 662.433 574.73 613.708 654.611 686.795C734.492 759.881 803.9 759.56 807.427 759.881C845.631 763.361 922.039 745.961 935.932 732.039C938.247 716.958 941.489 686.795 935.932 686.795C928.986 686.795 925.512 714.637 842.158 721.598C762.553 728.247 717.127 690.275 675.45 648.511C633.772 606.748 553.891 606.748 543.472 603.268C535.136 600.483 539.999 590.506 543.472 585.866C573.572 547.583 635.856 465.448 644.192 443.174C652.527 420.9 636.088 415.331 626.826 415.331Z" fill="black"/>
</g>
</g>
<defs>
<filter id="filter0_d_1_3" x="341" y="299.331" width="189" height="241" filterUnits="userSpaceOnUse" color-interpolation-filters="sRGB">
<feFlood flood-opacity="0" result="BackgroundImageFix"/>
<feColorMatrix in="SourceAlpha" type="matrix" values="0 0 0 0 0 0 0 0 0 0 0 0 0 0 0 0 0 0 127 0" result="hardAlpha"/>
<feOffset dy="4"/>
<feGaussianBlur stdDeviation="2"/>
<feComposite in2="hardAlpha" operator="out"/>
<feColorMatrix type="matrix" values="0 0 0 0 0 0 0 0 0 0 0 0 0 0 0 0 0 0 0.25 0"/>
<feBlend mode="normal" in2="BackgroundImageFix" result="effect1_dropShadow_1_3"/>
<feBlend mode="normal" in="SourceGraphic" in2="effect1_dropShadow_1_3" result="shape"/>
</filter>
<filter id="filter1_d_1_3" x="470" y="415.331" width="473" height="353" filterUnits="userSpaceOnUse" color-interpolation-filters="sRGB">
<feFlood flood-opacity="0" result="BackgroundImageFix"/>
<feColorMatrix in="SourceAlpha" type="matrix" values="0 0 0 0 0 0 0 0 0 0 0 0 0 0 0 0 0 0 127 0" result="hardAlpha"/>
<feOffset dy="4"/>
<feGaussianBlur stdDeviation="2"/>
<feComposite in2="hardAlpha" operator="out"/>
<feColorMatrix type="matrix" values="0 0 0 0 0 0 0 0 0 0 0 0 0 0 0 0 0 0 0.25 0"/>
<feBlend mode="normal" in2="BackgroundImageFix" result="effect1_dropShadow_1_3"/>
<feBlend mode="normal" in="SourceGraphic" in2="effect1_dropShadow_1_3" result="shape"/>
</filter>
<clipPath id="clip0_1_3">
<rect width="1000" height="1000" fill="white"/>
</clipPath>
</defs>
</svg>
