<svg width="500" height="500" viewBox="0 0 500 500" fill="none" xmlns="http://www.w3.org/2000/svg">
<rect width="500" height="500" fill="black"/>
<path d="M246.072 253.697C241.59 222.323 219.926 209.81 209.655 207.476H192.847H176.039C173.798 207.476 173.238 217.747 173.238 222.883V280.31C173.238 295.997 175.105 300.853 176.039 301.319H192.847H209.655C220.86 301.319 250.554 285.072 246.072 253.697Z" fill="white"/>
<path d="M316.104 207.476H258.678C257.277 207.476 254.476 209.437 254.476 217.28C254.476 228 253.489 223.883 282.489 222.883C311.489 221.883 310.5 218.202 282.489 253.697C271.617 267.474 253.075 292.916 255.876 299.919C258.678 306.922 295.095 287.313 327.31 316.727C359.525 346.14 387.516 346.011 388.938 346.14C404.346 347.541 435.16 340.538 440.763 334.935C441.696 328.866 443.004 316.727 440.763 316.727C437.961 316.727 436.561 327.932 402.945 330.733C370.841 333.409 352.521 318.127 335.714 301.319C318.906 284.512 286.691 284.512 282.489 283.111C279.127 281.99 281.088 277.975 282.489 276.108C294.628 260.701 319.746 227.645 323.108 218.681C326.469 209.717 319.84 207.476 316.104 207.476Z" fill="white"/>
<path d="M92 145.847V88.4202L253.075 45L414.15 88.4202V145.847H400.144V96.8242L253.075 59.0065L106.007 96.8242V145.847H92Z" fill="white"/>
<path d="M414.15 354.544V411.971L253.075 455.391L92 411.971V354.544H106.007V403.567L253.075 441.385L400.144 403.567V354.544H414.15Z" fill="white"/>
<path d="M232.694 255.537C229.698 234.809 215.214 226.542 208.347 225H197.11H185.873C184.375 225 184 231.786 184 235.179V273.119C184 283.484 185.249 286.692 185.873 287H197.11H208.347C215.839 287 235.691 276.266 232.694 255.537Z" fill="black"/>
</svg>
